<svg width="143" height="20" viewBox="0 0 143 20" fill="none" xmlns="http://www.w3.org/2000/svg">
<path d="M81.8306 5.83385C81.8306 2.6171 79.2135 0 75.9966 0H62.0703V3.33635H75.9778C77.355 3.33635 78.4753 4.45668 78.4753 5.83385V5.90261C78.4753 7.27978 77.355 8.40011 75.9778 8.40011H67.6794C64.5865 8.40011 62.0703 10.9162 62.0703 14.0092V19.9562H65.4065V13.999C65.4065 12.7515 66.4215 11.7365 67.669 11.7365H75.9966C79.2135 11.7365 81.8306 9.11936 81.8306 5.90261V5.83385Z" fill="black"/>
<path d="M45.6176 8.01957V7.53138V4.13646V3.64827V3.48553V3.33635H45.7668H45.9295H46.4177H59.505V0H42.2812V19.9562H59.505V16.6201H46.4177H45.9295H45.7668H45.6176V16.471V16.3082V15.8199V12.4679V11.9798V11.817V11.6678H45.7668H45.9295H46.4177H58.3035V8.33149H46.4177H45.9295H45.7668H45.6176V8.18231V8.01957Z" fill="black"/>
<path d="M21.5085 14.1658C21.5085 10.9489 18.8914 8.33178 15.6745 8.33178H5.83385C4.45668 8.33178 3.33621 7.21145 3.33621 5.83428C3.33621 4.45668 4.45668 3.33635 5.83385 3.33635H18.6284V0H5.83399C2.6171 0 0 2.6171 0 5.83384C0 9.05103 2.6171 11.6681 5.83399 11.6681H15.6745C17.0517 11.6681 18.1721 12.7886 18.1721 14.1658C18.1721 15.5429 17.0517 16.6634 15.6745 16.6634H4.11475V19.9998H15.6745C18.8914 19.9998 21.5085 17.3827 21.5085 14.1658Z" fill="black"/>
<path d="M32.4361 3.33635H32.9243H40.0445V0H20.8672V3.33635H27.9877H28.4759H28.6387H28.7878V3.48553V3.64827V4.13646V19.9562H32.1242V4.13646V3.64827V3.48553V3.33635H32.2734H32.4361Z" fill="black"/>
<path d="M87.2422 0.0859375V0.932604H88.5476V4.12972H89.5707V0.932604H90.8933V0.0859375H87.2422Z" fill="black"/>
<path d="M91.5078 5.65287V0.0870536H92.4607V0.709065C92.5137 0.605163 92.584 0.519513 92.6728 0.43246C92.7616 0.34681 92.8662 0.259757 92.9723 0.207805C93.0783 0.139005 93.2187 0.0870536 93.3434 0.0519513C93.4853 0.0168491 93.6257 0 93.7848 0C94.0671 0 94.3135 0.0351022 94.5256 0.120752C94.7377 0.207805 94.9311 0.328557 95.073 0.50126C95.232 0.673963 95.3381 0.881768 95.4083 1.12327C95.4785 1.36478 95.5315 1.65963 95.5315 1.98819V2.14405C95.5315 2.48945 95.4957 2.78431 95.4083 3.04266C95.3209 3.30102 95.2148 3.52707 95.0558 3.68152C94.8967 3.85423 94.7205 3.97498 94.5084 4.06203C94.2963 4.14768 94.0499 4.19963 93.7848 4.19963C93.5025 4.19963 93.2732 4.14768 93.0439 4.02693C92.8319 3.90618 92.6556 3.75032 92.5152 3.54252V5.63461H91.5092V5.65146L91.5078 5.65287ZM93.5541 3.37122C93.6945 3.37122 93.8192 3.33612 93.9238 3.28417C94.047 3.23221 94.1358 3.14657 94.2232 3.05951C94.3121 2.95561 94.3823 2.83486 94.4167 2.679C94.4697 2.52315 94.4869 2.35045 94.4869 2.14264V1.98679C94.4869 1.79724 94.4697 1.62313 94.4167 1.48553C94.3809 1.34793 94.3107 1.22577 94.2232 1.12187C94.1358 1.01797 94.0298 0.949165 93.9238 0.897213C93.8005 0.845262 93.6773 0.828413 93.5354 0.828413C93.3936 0.828413 93.2531 0.845262 93.1299 0.897213C93.0067 0.932316 92.9006 1.00112 92.8118 1.08677C92.7244 1.17242 92.6527 1.27632 92.5997 1.39847C92.5467 1.51923 92.5295 1.65823 92.5295 1.81268V2.26199C92.5295 2.43469 92.5467 2.5737 92.5997 2.7113C92.6527 2.8489 92.723 2.9528 92.8118 3.0567C92.9006 3.14235 93.0052 3.22941 93.1299 3.26451C93.2703 3.35156 93.395 3.36841 93.5526 3.36841" fill="black"/>
<path d="M97.5271 4.21562C97.2978 4.21562 97.1029 4.18052 96.9267 4.11171C96.7504 4.04291 96.6086 3.95586 96.4853 3.85196C96.3621 3.74806 96.2732 3.61046 96.2202 3.4546C96.15 3.29875 96.1328 3.12604 96.1328 2.95334C96.1328 2.76379 96.1686 2.57283 96.2202 2.43523C96.2904 2.27938 96.3793 2.15863 96.5025 2.05472C96.6257 1.95082 96.7848 1.88202 96.9611 1.83007C97.1373 1.77812 97.3666 1.76127 97.5959 1.76127H98.831V1.55346C98.831 1.41586 98.8139 1.29371 98.778 1.20806C98.7422 1.10415 98.6906 1.03535 98.6376 0.983403C98.5674 0.931452 98.4972 0.8795 98.3911 0.862651C98.3023 0.845802 98.1791 0.827549 98.073 0.827549C97.967 0.827549 97.8609 0.844398 97.7735 0.862651C97.6847 0.8795 97.6145 0.914603 97.5615 0.948301C97.5084 0.983403 97.474 1.03535 97.4382 1.0859C97.4024 1.13785 97.3852 1.20665 97.3852 1.2586H96.3621C96.3793 1.0859 96.4151 0.913198 96.5025 0.774194C96.5914 0.61834 96.6974 0.497588 96.855 0.393685C96.9954 0.289783 97.1903 0.204133 97.4024 0.133929C97.6145 0.0651282 97.8609 0.046875 98.126 0.046875C98.3911 0.046875 98.6376 0.0819772 98.8497 0.133929C99.0618 0.18588 99.2552 0.289783 99.3971 0.410534C99.5561 0.531286 99.6622 0.703989 99.7496 0.894945C99.837 1.0845 99.8728 1.3274 99.8728 1.60401V3.14289C99.8728 3.3507 99.8728 3.54025 99.89 3.6961C99.89 3.85196 99.9072 4.00781 99.9258 4.16226H98.9729C98.9557 4.05836 98.9557 3.97271 98.9371 3.90251C98.9371 3.81545 98.9199 3.7298 98.9199 3.6259C98.8669 3.71295 98.7967 3.7986 98.7078 3.8674C98.619 3.95305 98.5144 4.005 98.4083 4.07521C98.3023 4.12716 98.1619 4.17911 98.02 4.21281C97.8609 4.19596 97.7019 4.21281 97.5256 4.21281M97.8437 3.45179C97.9842 3.45179 98.1088 3.43494 98.2321 3.39984C98.3553 3.36474 98.4613 3.31279 98.5502 3.22714C98.6376 3.15834 98.7092 3.05444 98.7623 2.95053C98.8153 2.84663 98.8325 2.72588 98.8325 2.58687V2.37907H97.7922C97.5987 2.37907 97.4397 2.43102 97.3336 2.51667C97.2276 2.60232 97.1746 2.74132 97.1746 2.88033C97.1746 3.03618 97.2276 3.17378 97.3336 3.27769C97.4397 3.39844 97.5987 3.45039 97.8452 3.45039" fill="black"/>
<path d="M103.52 0.0859375V1.65852H101.773V0.0859375H100.75V4.12972H101.773V2.48834H103.52V4.12972H104.543V0.0859375H103.52Z" fill="black"/>
<path d="M107.318 4.21807C107.036 4.21807 106.754 4.18296 106.507 4.09731C106.261 4.01166 106.049 3.88951 105.872 3.71681C105.696 3.5441 105.554 3.3363 105.448 3.07654C105.342 2.81678 105.289 2.50648 105.289 2.15967V2.00382C105.289 1.67526 105.342 1.39865 105.448 1.1389C105.554 0.897393 105.695 0.689588 105.889 0.516885C106.066 0.344182 106.295 0.22343 106.543 0.136377C106.789 0.0493232 107.054 0.015625 107.32 0.015625C107.602 0.015625 107.867 0.0507272 108.078 0.136377C108.29 0.205177 108.483 0.30908 108.642 0.448085C108.801 0.585686 108.924 0.741539 109.012 0.914243C109.101 1.08695 109.152 1.2779 109.188 1.4843H108.148C108.112 1.39725 108.078 1.3116 108.042 1.22455C108.006 1.15575 107.953 1.08695 107.883 1.03499C107.812 0.983043 107.742 0.947941 107.653 0.914243C107.566 0.87914 107.46 0.87914 107.335 0.87914C107.193 0.87914 107.07 0.895989 106.964 0.947941C106.841 0.999892 106.752 1.06869 106.665 1.15575C106.576 1.2414 106.506 1.36355 106.453 1.50115C106.4 1.63875 106.382 1.81286 106.382 2.00241V2.15827C106.382 2.36607 106.4 2.55562 106.453 2.71148C106.506 2.86733 106.576 2.98808 106.665 3.09199C106.754 3.19589 106.858 3.26469 106.983 3.31664C107.106 3.36859 107.229 3.38544 107.371 3.38544C107.583 3.38544 107.759 3.33349 107.9 3.22959C108.04 3.12568 108.146 2.96983 108.199 2.78028H109.24C109.222 3.00493 109.152 3.21274 109.046 3.38544C108.94 3.55814 108.817 3.714 108.658 3.8516C108.499 3.97235 108.305 4.07625 108.093 4.14505C107.811 4.18016 107.582 4.21385 107.317 4.21385" fill="black"/>
<path d="M109.875 0.0859375V4.12972H110.898V0.932604H112.575V4.12972H113.598V0.0859375H109.875Z" fill="black"/>
<path d="M116.39 4.21916C116.108 4.21916 115.843 4.18406 115.596 4.09841C115.35 4.01136 115.138 3.89061 114.944 3.7179C114.751 3.5452 114.609 3.3374 114.503 3.07904C114.397 2.81929 114.344 2.50898 114.344 2.16358V2.00772C114.344 1.67917 114.397 1.38571 114.503 1.1428C114.609 0.9013 114.768 0.693494 114.944 0.520791C115.138 0.348088 115.35 0.227337 115.596 0.140283C115.843 0.0546335 116.108 0.0195312 116.39 0.0195312C116.672 0.0195312 116.937 0.0546335 117.184 0.140283C117.43 0.227337 117.642 0.348088 117.836 0.520791C118.029 0.693494 118.171 0.9013 118.277 1.1428C118.383 1.38431 118.436 1.67917 118.436 2.00772V2.16358C118.436 2.50898 118.383 2.80244 118.277 3.07904C118.171 3.3388 118.012 3.56345 117.836 3.73616C117.642 3.90886 117.43 4.02961 117.184 4.11667C116.937 4.16862 116.672 4.22057 116.39 4.22057M116.39 3.3739C116.53 3.3739 116.672 3.35705 116.796 3.3051C116.919 3.25315 117.025 3.18435 117.114 3.08045C117.201 2.97654 117.273 2.85579 117.326 2.69994C117.379 2.54409 117.396 2.37138 117.396 2.18183V2.02598C117.396 1.83642 117.379 1.68057 117.326 1.54156C117.273 1.40396 117.202 1.28181 117.114 1.17791C117.025 1.074 116.92 1.0052 116.796 0.953251C116.672 0.9013 116.53 0.884451 116.39 0.884451C116.25 0.884451 116.108 0.9013 115.984 0.953251C115.861 1.0052 115.755 1.074 115.666 1.17791C115.579 1.28181 115.507 1.38571 115.454 1.54156C115.401 1.67917 115.384 1.85327 115.384 2.02598V2.18183C115.384 2.38964 115.401 2.56234 115.454 2.71819C115.507 2.87405 115.578 2.9948 115.666 3.0987C115.755 3.2026 115.86 3.2714 115.984 3.32335C116.125 3.3402 116.25 3.37531 116.39 3.37531" fill="black"/>
<path d="M119.188 5.65287V0.0870536H120.14V0.709065C120.193 0.605163 120.264 0.519513 120.352 0.43246C120.441 0.34681 120.546 0.259757 120.652 0.207805C120.758 0.139005 120.898 0.0870536 121.023 0.0519513C121.164 0.0168491 121.305 0 121.464 0C121.747 0 121.993 0.0351022 122.205 0.120752C122.417 0.207805 122.611 0.328557 122.753 0.50126C122.895 0.673963 123.018 0.881768 123.088 1.12327C123.158 1.36478 123.211 1.65963 123.211 1.98819V2.14405C123.211 2.48945 123.175 2.78431 123.088 3.04266C123.001 3.30242 122.895 3.52707 122.735 3.68152C122.576 3.85423 122.4 3.97498 122.188 4.06203C121.976 4.14768 121.73 4.19963 121.464 4.19963C121.182 4.19963 120.953 4.14768 120.724 4.02693C120.512 3.90618 120.335 3.75032 120.195 3.54252V5.63461H119.189V5.65146L119.188 5.65287ZM121.234 3.37122C121.374 3.37122 121.499 3.33612 121.603 3.28417C121.727 3.23221 121.816 3.14657 121.903 3.05951C121.992 2.95561 122.062 2.83486 122.096 2.679C122.149 2.52315 122.167 2.35045 122.167 2.14264V1.98679C122.167 1.79724 122.149 1.62313 122.096 1.48553C122.061 1.34793 121.99 1.22577 121.903 1.12187C121.816 1.01797 121.709 0.949165 121.603 0.897213C121.48 0.845262 121.357 0.828413 121.215 0.828413C121.073 0.828413 120.933 0.845262 120.81 0.897213C120.686 0.932316 120.58 1.00112 120.491 1.08677C120.404 1.17242 120.332 1.27632 120.279 1.39847C120.226 1.51923 120.209 1.65823 120.209 1.81268V2.26199C120.209 2.43469 120.226 2.5737 120.279 2.7113C120.332 2.8489 120.403 2.9528 120.491 3.0567C120.58 3.14235 120.685 3.22941 120.81 3.26451C120.95 3.35156 121.075 3.36841 121.232 3.36841" fill="black"/>
<path d="M123.578 0.0859375V0.932604H124.884V4.12972H125.907V0.932604H127.212V0.0859375H123.578Z" fill="black"/>
<path d="M130.621 0.0859375V1.65852H128.875V0.0859375H127.852V4.12972H128.875V2.48834H130.621V4.12972H131.645V0.0859375H130.621Z" fill="black"/>
<path d="M132.578 4.12972V0.0859375H133.601V1.46897H134.325C134.59 1.46897 134.819 1.50407 135.013 1.55462C135.206 1.60657 135.384 1.69222 135.507 1.81437C135.63 1.91828 135.736 2.05588 135.807 2.22998C135.877 2.40269 135.913 2.59224 135.913 2.80004C135.913 2.9896 135.877 3.18055 135.825 3.33641C135.772 3.50911 135.666 3.64811 135.543 3.75202C135.42 3.87277 135.243 3.95982 135.049 4.01177C134.855 4.08057 134.607 4.09742 134.325 4.09742H132.578V4.13252V4.12972ZM133.601 3.335H134.202C134.448 3.335 134.624 3.28305 134.73 3.1974C134.836 3.11175 134.889 2.97275 134.889 2.80004C134.889 2.61049 134.836 2.47149 134.73 2.38443C134.624 2.29738 134.448 2.26368 134.202 2.26368H133.601V3.335ZM136.371 0.0859375H137.394V4.11427H136.371V0.0859375Z" fill="black"/>
<path d="M140.215 4.21789C139.933 4.21789 139.667 4.18278 139.404 4.09713C139.157 4.01008 138.928 3.88933 138.733 3.71663C138.54 3.54392 138.398 3.33612 138.292 3.07636C138.186 2.8166 138.133 2.5063 138.133 2.16089V2.00504C138.133 1.67648 138.186 1.38303 138.292 1.12327C138.398 0.881768 138.538 0.673963 138.715 0.50126C138.891 0.328557 139.103 0.207805 139.349 0.120752C139.597 0.0351022 139.862 0 140.126 0C140.779 0 141.291 0.172703 141.626 0.50126C141.962 0.846666 142.138 1.31423 142.138 1.95309V2.3687H139.175C139.175 2.55825 139.21 2.71411 139.263 2.83486C139.334 2.95561 139.404 3.07636 139.493 3.14657C139.582 3.23221 139.705 3.28417 139.828 3.31927C139.951 3.35437 140.074 3.37122 140.199 3.37122C140.464 3.37122 140.658 3.33612 140.8 3.25047C140.94 3.16482 141.046 3.06092 141.099 2.92191H142.069C142.033 3.12972 141.946 3.31927 141.84 3.47512C141.734 3.63098 141.593 3.76858 141.452 3.87248C141.292 3.97638 141.116 4.06203 140.904 4.11398C140.692 4.18278 140.463 4.21789 140.216 4.21789M139.176 1.67648H141.135C141.135 1.52063 141.118 1.38303 141.065 1.26087C141.012 1.15697 140.941 1.07132 140.853 1.00112C140.764 0.932316 140.659 0.880364 140.553 0.863515C140.43 0.828413 140.307 0.828413 140.182 0.828413C140.057 0.828413 139.935 0.845262 139.829 0.880364C139.706 0.915467 139.6 0.967418 139.511 1.03622C139.424 1.10502 139.335 1.19207 139.282 1.31282C139.212 1.39988 139.176 1.52063 139.176 1.67648Z" fill="black"/>
<path d="M87.5625 13.5891V8.04018H88.5154V8.66219C88.5684 8.55829 88.6386 8.47264 88.7275 8.38558C88.8163 8.29853 88.9209 8.21288 89.027 8.16093C89.133 8.09213 89.2734 8.04018 89.3981 8.00508C89.5385 7.96997 89.6804 7.95312 89.8394 7.95312C90.1217 7.95312 90.3682 7.98823 90.5803 8.07388C90.7924 8.16093 90.9858 8.28168 91.1277 8.45439C91.2867 8.62709 91.3928 8.83489 91.463 9.0764C91.5332 9.3179 91.5862 9.61276 91.5862 9.94132V10.0972C91.5862 10.4426 91.5504 10.736 91.463 10.9958C91.3756 11.2555 91.2695 11.4802 91.1105 11.6346C90.9514 11.8074 90.7752 11.9281 90.5631 12.0152C90.351 12.1022 90.1045 12.1542 89.8394 12.1542C89.5572 12.1542 89.3279 12.1022 89.0986 11.9815C88.8865 11.8607 88.7103 11.7049 88.5699 11.497V13.5891H87.5639H87.5625ZM89.5915 11.3075C89.732 11.3075 89.8566 11.2724 89.9612 11.2204C90.0673 11.1685 90.1733 11.0828 90.2607 10.9958C90.3496 10.8919 90.4198 10.7711 90.4542 10.6153C90.5072 10.4594 90.5244 10.2867 90.5244 10.0789V9.92306C90.5244 9.73351 90.5072 9.5594 90.4542 9.4218C90.4184 9.2842 90.3481 9.16205 90.2607 9.05814C90.1733 8.95424 90.0673 8.88544 89.9612 8.83349C89.838 8.78154 89.7148 8.76469 89.5729 8.76469C89.4311 8.76469 89.2906 8.78154 89.1674 8.83349C89.0442 8.86859 88.9381 8.93739 88.8493 9.02304C88.7619 9.10869 88.6902 9.21259 88.6372 9.33475C88.5842 9.4555 88.567 9.59451 88.567 9.74896V10.2334C88.567 10.4061 88.5842 10.5451 88.6372 10.6827C88.6902 10.8203 88.7604 10.9242 88.8493 11.0281C88.9381 11.1151 89.0427 11.2008 89.1674 11.2359C89.3078 11.2878 89.4497 11.3047 89.5901 11.3047" fill="black"/>
<path d="M94.2071 12.1515C93.9248 12.1515 93.6597 12.1164 93.396 12.0307C93.1496 11.9437 92.9203 11.8229 92.7254 11.6502C92.532 11.4775 92.3901 11.2697 92.2841 11.0114C92.178 10.7516 92.125 10.4413 92.125 10.0945V9.93863C92.125 9.61008 92.178 9.31662 92.2841 9.05687C92.3901 8.81536 92.5305 8.60756 92.7082 8.43485C92.8845 8.26215 93.0965 8.1414 93.343 8.05435C93.5895 7.96729 93.8546 7.93359 94.1197 7.93359C94.7716 7.93359 95.2846 8.1063 95.6185 8.43485C95.9538 8.78026 96.1301 9.24782 96.1301 9.88668V10.3023H93.1668C93.1668 10.4918 93.2026 10.6477 93.2542 10.7685C93.3244 10.8892 93.396 11.01 93.4834 11.0802C93.5708 11.1658 93.6955 11.2192 93.8187 11.2529C93.942 11.288 94.0652 11.3048 94.1884 11.3048C94.4535 11.3048 94.647 11.2697 94.7888 11.1841C94.9293 11.0984 95.0353 10.9945 95.0883 10.8555H96.0584C96.0226 11.0633 95.9352 11.2529 95.8292 11.4087C95.7231 11.5646 95.5827 11.7022 95.4408 11.8061C95.2818 11.91 95.1055 11.9956 94.8934 12.0476C94.6814 12.0995 94.4521 12.1515 94.2056 12.1515M93.1825 9.62833H95.1413C95.1413 9.47248 95.1242 9.33488 95.0711 9.21272C95.0181 9.10882 94.9479 9.02317 94.8591 8.95296C94.7702 8.88416 94.6656 8.83221 94.5596 8.81536C94.4363 8.78026 94.3131 8.78026 94.1884 8.78026C94.0638 8.78026 93.942 8.79711 93.8359 8.83221C93.7127 8.86731 93.6067 8.91926 93.5178 8.98807C93.4304 9.05687 93.3416 9.14392 93.2886 9.26467C93.2183 9.33347 93.1825 9.47248 93.1825 9.62833Z" fill="black"/>
<path d="M96.8906 12.066V8.03906H97.9137V11.2193H99.1318V8.03906H100.155V11.2193H101.371V8.03906H102.395V12.066H96.8906Z" fill="black"/>
<path d="M105.215 12.1515C104.933 12.1515 104.667 12.1164 104.404 12.0307C104.157 11.9437 103.928 11.8229 103.733 11.6502C103.54 11.4775 103.398 11.2697 103.292 11.0114C103.186 10.7516 103.133 10.4413 103.133 10.0945V9.93863C103.133 9.61008 103.186 9.31662 103.292 9.05687C103.398 8.81536 103.538 8.60756 103.715 8.43485C103.891 8.26215 104.103 8.1414 104.349 8.05435C104.596 7.96729 104.861 7.93359 105.126 7.93359C105.779 7.93359 106.291 8.1063 106.626 8.43485C106.962 8.78026 107.138 9.24782 107.138 9.88668V10.3023H104.175C104.175 10.4918 104.21 10.6477 104.263 10.7685C104.334 10.8892 104.404 11.01 104.493 11.0802C104.582 11.1658 104.705 11.2192 104.828 11.2529C104.951 11.288 105.074 11.3048 105.199 11.3048C105.464 11.3048 105.658 11.2697 105.8 11.1841C105.94 11.0984 106.046 10.9945 106.082 10.8555H107.052C107.016 11.0633 106.929 11.2529 106.823 11.4087C106.717 11.5646 106.576 11.7022 106.434 11.8061C106.275 11.91 106.099 11.9956 105.887 12.0476C105.693 12.1346 105.464 12.1515 105.216 12.1515M104.176 9.62833H106.135C106.135 9.47248 106.118 9.33488 106.065 9.21272C106.012 9.10882 105.941 9.02317 105.853 8.95296C105.764 8.88416 105.659 8.83221 105.553 8.81536C105.43 8.78026 105.307 8.78026 105.182 8.78026C105.057 8.78026 104.935 8.79711 104.829 8.83221C104.706 8.86731 104.6 8.91926 104.511 8.98807C104.424 9.05687 104.335 9.14392 104.282 9.26467C104.212 9.33347 104.176 9.47248 104.176 9.62833Z" fill="black"/>
<path d="M107.883 12.066V8.03906H108.906V9.59479H110.67V8.03906H111.693V12.066H110.67V10.4246H108.906V12.066H107.883Z" fill="black"/>
<path d="M112.625 12.066V8.03906H113.612V10.6661L115.501 8.03906H116.418V12.066H115.412V9.42209L113.542 12.066H112.625Z" fill="black"/>
<path d="M117.125 12.0635L118.201 10.5429C117.883 10.4558 117.654 10.3014 117.496 10.1104C117.356 9.9026 117.284 9.67794 117.284 9.38449C117.284 9.19493 117.32 9.00398 117.39 8.84812C117.46 8.67542 117.566 8.53642 117.69 8.41566C117.83 8.29491 118.008 8.20786 118.218 8.13906C118.43 8.07026 118.694 8.03516 118.995 8.03516H120.935V12.0635H119.912V10.6454H119.171L118.271 12.0635H117.125ZM118.942 9.86749H119.895V8.86497H118.942C118.749 8.86497 118.589 8.90008 118.466 8.98573C118.343 9.07278 118.29 9.19353 118.29 9.36623C118.29 9.52209 118.343 9.64284 118.466 9.72989C118.589 9.81695 118.749 9.86749 118.942 9.86749Z" fill="black"/>
</svg>
