<svg width="163" height="25" viewBox="0 0 163 25" fill="none" xmlns="http://www.w3.org/2000/svg">
<path d="M105.513 0.550781V1.46431H104.196V4.95152H103.035V1.46431H101.719V0.550781H105.513Z" fill="black"/>
<path d="M108.956 0.480469C109.514 0.480469 109.953 0.681354 110.272 1.08312C110.591 1.4849 110.751 2.04071 110.751 2.75092C110.751 3.45836 110.593 4.01383 110.276 4.41664C109.96 4.8198 109.526 5.02138 108.976 5.02138C108.662 5.02138 108.389 4.95616 108.158 4.8257C107.926 4.69525 107.756 4.5131 107.647 4.2789H107.575V6.33009H106.414V0.552637H107.539V1.27465H107.611C107.731 1.02727 107.909 0.832976 108.146 0.692112C108.382 0.551247 108.653 0.480469 108.956 0.480469ZM108.561 4.05165C108.875 4.05165 109.119 3.93646 109.295 3.70643C109.47 3.4764 109.558 3.1579 109.558 2.75092C109.558 2.34672 109.47 2.02926 109.293 1.79924C109.116 1.56921 108.873 1.45402 108.564 1.45402C108.256 1.45402 108.012 1.57059 107.832 1.8034C107.653 2.0362 107.563 2.35332 107.563 2.75509C107.563 3.15651 107.652 3.47328 107.83 3.70435C108.009 3.93611 108.252 4.05165 108.561 4.05165Z" fill="black"/>
<path d="M112.995 5.02153C112.569 5.02153 112.223 4.90045 111.955 4.65828C111.688 4.4161 111.555 4.09587 111.555 3.69687C111.555 3.30031 111.701 2.9884 111.995 2.76114C112.289 2.53354 112.71 2.40413 113.258 2.37221L114.323 2.30837V1.94893C114.323 1.76574 114.26 1.62383 114.132 1.52426C114.004 1.42433 113.821 1.37437 113.582 1.37437C113.151 1.37437 112.886 1.51038 112.787 1.78169H111.718C111.755 1.37437 111.947 1.05205 112.295 0.814044C112.642 0.576035 113.092 0.457031 113.645 0.457031C114.225 0.457031 114.674 0.587138 114.992 0.847699C115.31 1.10861 115.469 1.47568 115.469 1.94893V4.95353H114.343V4.37898H114.272C114.157 4.58125 113.987 4.73877 113.761 4.85187C113.535 4.96497 113.279 5.02153 112.995 5.02153ZM113.378 4.14756C113.646 4.14756 113.871 4.07158 114.052 3.92031C114.233 3.76834 114.323 3.58099 114.323 3.35755V3.03419L113.434 3.0904C112.939 3.12475 112.692 3.30169 112.692 3.62089C112.692 3.78326 112.755 3.91163 112.881 4.006C113.007 4.10037 113.173 4.14756 113.378 4.14756Z" fill="black"/>
<path d="M116.695 4.95152V0.550781H117.856V2.23836H119.616V0.550781H120.777V4.95152H119.616V3.15223H117.856V4.95152H116.695Z" fill="black"/>
<path d="M125.922 2.1047H124.837C124.797 1.88925 124.702 1.71959 124.552 1.59607C124.401 1.47221 124.205 1.41045 123.963 1.41045C123.649 1.41045 123.408 1.52495 123.239 1.75359C123.07 1.98223 122.986 2.31218 122.986 2.7431C122.986 3.17922 123.07 3.51368 123.239 3.74648C123.408 3.97929 123.649 4.09587 123.963 4.09587C124.203 4.09587 124.398 4.03862 124.548 3.92412C124.698 3.80963 124.795 3.64483 124.837 3.42937H125.922C125.875 3.9269 125.678 4.32104 125.332 4.61248C124.986 4.90357 124.53 5.04929 123.963 5.04929C123.277 5.04929 122.747 4.8491 122.373 4.44871C122 4.04833 121.812 3.48003 121.812 2.7431C121.812 2.01172 121.999 1.44758 122.371 1.05136C122.744 0.655142 123.274 0.457031 123.963 0.457031C124.538 0.457031 124.996 0.604486 125.338 0.899741C125.68 1.195 125.875 1.59677 125.922 2.1047Z" fill="black"/>
<path d="M129.787 4.95152V1.46431H128.067V4.95152H126.906V0.550781H130.948V4.95152H129.787Z" fill="black"/>
<path d="M135.733 4.43865C135.349 4.84597 134.819 5.04929 134.143 5.04929C133.468 5.04929 132.938 4.84597 132.553 4.43865C132.169 4.03203 131.977 3.46927 131.977 2.75108C131.977 2.03809 132.17 1.47777 132.557 1.0694C132.944 0.66104 133.473 0.457031 134.143 0.457031C134.814 0.457031 135.342 0.66104 135.729 1.0694C136.116 1.47776 136.31 2.03809 136.31 2.75108C136.31 3.46927 136.118 4.03203 135.733 4.43865ZM134.143 4.09968C134.452 4.09968 134.691 3.98207 134.861 3.74648C135.032 3.51125 135.117 3.17922 135.117 2.75108C135.117 2.32814 135.031 1.99819 134.859 1.76157C134.688 1.52495 134.449 1.40629 134.143 1.40629C133.835 1.40629 133.595 1.52495 133.425 1.76157C133.255 1.99819 133.17 2.32814 133.17 2.75108C133.17 3.17922 133.254 3.51125 133.423 3.74648C133.592 3.98207 133.832 4.09968 134.143 4.09968Z" fill="black"/>
<path d="M139.901 0.480469C140.46 0.480469 140.898 0.681354 141.217 1.08312C141.537 1.4849 141.696 2.04071 141.696 2.75092C141.696 3.45836 141.538 4.01383 141.222 4.41664C140.905 4.8198 140.472 5.02138 139.921 5.02138C139.607 5.02138 139.334 4.95616 139.103 4.8257C138.871 4.69525 138.701 4.5131 138.592 4.2789H138.52V6.33009H137.359V0.552637H138.485V1.27465H138.556C138.676 1.02727 138.854 0.832976 139.091 0.692112C139.328 0.551247 139.598 0.480469 139.901 0.480469ZM139.506 4.05165C139.82 4.05165 140.065 3.93646 140.24 3.70643C140.416 3.4764 140.503 3.1579 140.503 2.75092C140.503 2.34672 140.415 2.02926 140.238 1.79924C140.061 1.56921 139.819 1.45402 139.51 1.45402C139.201 1.45402 138.957 1.57059 138.778 1.8034C138.598 2.0362 138.508 2.35332 138.508 2.75509C138.508 3.15651 138.598 3.47328 138.776 3.70435C138.954 3.93611 139.198 4.05165 139.506 4.05165Z" fill="black"/>
<path d="M146.06 0.550781V1.46431H144.743V4.95152H143.582V1.46431H142.266V0.550781H146.06Z" fill="black"/>
<path d="M146.953 4.95152V0.550781H148.114V2.23836H149.874V0.550781H151.035V4.95152H149.874V3.15223H148.114V4.95152H146.953Z" fill="black"/>
<path d="M152.266 4.95152V0.550781H153.427V1.81924H154.28C154.799 1.81924 155.212 1.96114 155.519 2.24425C155.827 2.52771 155.98 2.90867 155.98 3.38746C155.98 3.86625 155.827 4.24651 155.519 4.52858C155.212 4.81066 154.799 4.95152 154.28 4.95152L152.266 4.95152ZM154.097 2.72131H153.427V4.03765H154.097C154.318 4.03765 154.494 3.97728 154.626 3.85619C154.757 3.73511 154.823 3.5762 154.823 3.37948C154.823 3.18276 154.757 3.02385 154.624 2.90277C154.491 2.78168 154.315 2.72131 154.097 2.72131ZM156.419 4.95152V0.550781H157.58V4.95152H156.419Z" fill="black"/>
<path d="M161.678 3.70069H162.759C162.671 4.11842 162.448 4.44733 162.091 4.68811C161.733 4.9289 161.285 5.04929 160.748 5.04929C160.078 5.04929 159.555 4.8491 159.18 4.44871C158.805 4.04833 158.617 3.49043 158.617 2.77502C158.617 2.0596 158.806 1.49442 159.184 1.07946C159.562 0.664507 160.078 0.457031 160.732 0.457031C161.381 0.457031 161.887 0.652364 162.25 1.04338C162.613 1.4344 162.795 1.9798 162.795 2.67926V3.03419H159.775V3.09421C159.782 3.42139 159.876 3.68021 160.056 3.87035C160.235 4.06048 160.477 4.15554 160.78 4.15554C161.009 4.15554 161.2 4.11633 161.355 4.03792C161.509 3.95951 161.617 3.8471 161.678 3.70069ZM160.736 1.34661C160.467 1.34661 160.246 1.433 160.072 1.60613C159.897 1.77892 159.8 2.00756 159.778 2.29241H161.654C161.641 1.99958 161.552 1.76886 161.388 1.59989C161.225 1.43092 161.007 1.34661 160.736 1.34661Z" fill="black"/>
<path d="M104.604 9.71875C105.163 9.71875 105.601 9.91964 105.921 10.3214C106.24 10.7232 106.399 11.279 106.399 11.9892C106.399 12.6966 106.241 13.2521 105.925 13.6549C105.608 14.0581 105.175 14.2597 104.624 14.2597C104.31 14.2597 104.037 14.1944 103.806 14.064C103.575 13.9335 103.405 13.7514 103.296 13.5172H103.223V15.5684H102.062V9.79092H103.188V10.5129H103.259C103.379 10.2656 103.558 10.0713 103.794 9.9304C104.031 9.78953 104.301 9.71875 104.604 9.71875ZM104.209 13.2899C104.523 13.2899 104.768 13.1747 104.943 12.9447C105.119 12.7147 105.207 12.3962 105.207 11.9892C105.207 11.585 105.118 11.2675 104.941 11.0375C104.764 10.8075 104.522 10.6923 104.213 10.6923C103.904 10.6923 103.661 10.8089 103.481 11.0417C103.301 11.2745 103.212 11.5916 103.212 11.9934C103.212 12.3948 103.301 12.7116 103.479 12.9426C103.657 13.1744 103.901 13.2899 104.209 13.2899Z" fill="black"/>
<path d="M110.303 12.939H111.384C111.296 13.3567 111.073 13.6856 110.716 13.9264C110.358 14.1672 109.91 14.2876 109.373 14.2876C108.703 14.2876 108.18 14.0874 107.805 13.687C107.43 13.2866 107.242 12.7287 107.242 12.0133C107.242 11.2979 107.431 10.7327 107.809 10.3177C108.187 9.90279 108.703 9.69531 109.357 9.69531C110.006 9.69531 110.512 9.89065 110.875 10.2817C111.238 10.6727 111.42 11.2181 111.42 11.9175V12.2725H108.4V12.3325C108.407 12.6597 108.501 12.9185 108.681 13.1086C108.86 13.2988 109.102 13.3938 109.405 13.3938C109.634 13.3938 109.825 13.3546 109.98 13.2762C110.134 13.1978 110.242 13.0854 110.303 12.939ZM109.361 10.5849C109.092 10.5849 108.871 10.6713 108.697 10.8444C108.522 11.0172 108.425 11.2458 108.403 11.5307H110.279C110.266 11.2379 110.177 11.0071 110.013 10.8382C109.85 10.6692 109.632 10.5849 109.361 10.5849Z" fill="black"/>
<path d="M112.461 14.1898V9.78906H113.622V13.2759H114.883V9.78906H116.044V13.2759H117.304V9.78906H118.466V14.1898H112.461Z" fill="black"/>
<path d="M122.56 12.939H123.642C123.554 13.3567 123.331 13.6856 122.973 13.9264C122.616 14.1672 122.168 14.2876 121.631 14.2876C120.961 14.2876 120.438 14.0874 120.063 13.687C119.688 13.2866 119.5 12.7287 119.5 12.0133C119.5 11.2979 119.689 10.7327 120.067 10.3177C120.444 9.90279 120.961 9.69531 121.615 9.69531C122.264 9.69531 122.77 9.89065 123.133 10.2817C123.496 10.6727 123.678 11.2181 123.678 11.9175V12.2725H120.657V12.3325C120.665 12.6597 120.759 12.9185 120.938 13.1086C121.118 13.2988 121.36 13.3938 121.663 13.3938C121.892 13.3938 122.083 13.3546 122.237 13.2762C122.391 13.1978 122.499 13.0854 122.56 12.939ZM121.619 10.5849C121.35 10.5849 121.129 10.6713 120.954 10.8444C120.78 11.0172 120.682 11.2458 120.661 11.5307H122.537C122.523 11.2379 122.435 11.0071 122.271 10.8382C122.108 10.6692 121.89 10.5849 121.619 10.5849Z" fill="black"/>
<path d="M124.727 14.1898V9.78906H125.887V11.4766H127.647V9.78906H128.808V14.1898H127.647V12.3905H125.887V14.1898H124.727Z" fill="black"/>
<path d="M131.164 14.1898H130.023V9.78906H131.164V12.4939H131.236L133.012 9.78906H134.153V14.1898H133.012V11.4527H132.94L131.164 14.1898Z" fill="black"/>
<path d="M137.832 14.1898V12.7735H137.357L136.38 14.1898H135.062L136.216 12.582C135.923 12.4939 135.692 12.3364 135.522 12.1091C135.351 11.8815 135.266 11.6161 135.266 11.3129C135.266 10.85 135.425 10.4805 135.743 10.204C136.061 9.92715 136.479 9.78906 136.998 9.78906H138.969V14.1898L137.832 14.1898ZM137.117 11.9277H137.832V10.6988H137.117C136.902 10.6988 136.73 10.7557 136.601 10.8702C136.472 10.9847 136.407 11.1363 136.407 11.325C136.407 11.5033 136.473 11.648 136.603 11.7597C136.733 11.8715 136.905 11.9277 137.117 11.9277Z" fill="black"/>
<path d="M96.4027 7.29235C96.4027 3.27139 93.131 0 89.1101 0H73.1719V4.17045H89.0866C90.8078 4.17045 92.2083 5.57087 92.2083 7.29235V7.3783C92.2083 9.09975 90.8078 10.5002 89.0866 10.5002H80.1833C76.3171 10.5002 73.1719 13.6454 73.1719 17.5115V24.9454H77.3424V17.4988C77.3424 15.9394 78.6109 14.6706 80.1705 14.6706H89.1101C93.131 14.6706 96.4027 11.3992 96.4027 7.3783V7.29235Z" fill="black"/>
<path d="M54.0846 10.4144V4.17046H69.9739V0H49.9141V24.9454H69.9739V20.7753H54.0846V14.5849H68.472V10.4144H54.0846Z" fill="black"/>
<path d="M25.4158 17.7073C25.4158 13.6862 22.1445 10.4148 18.1233 10.4148H7.29235C5.57086 10.4148 4.17028 9.01435 4.17028 7.29291C4.17028 5.57087 5.57087 4.17046 7.29235 4.17046H21.8157V0H7.29254C3.2714 0 0 3.27139 0 7.29235C0 11.3138 3.2714 14.5852 7.29254 14.5852H18.1233C19.8448 14.5852 21.2454 15.9858 21.2454 17.7073C21.2454 19.4288 19.8448 20.8294 18.1233 20.8294H4.17028V24.9998H18.1233C22.1445 24.9998 25.4158 21.7284 25.4158 17.7073Z" fill="black"/>
<path d="M37.9456 4.17046H47.1112V0H24.6094V4.17046H33.7753V24.9454H37.9456L37.9456 4.17046Z" fill="black"/>
</svg>
